<svg width="400" height="400" xmlns="http://www.w3.org/2000/svg">
  <rect width="100%" height="100%" fill="#f9f3eb"/>
  <!-- Plate 1 -->
  <circle cx="150" cy="150" r="60" fill="white" stroke="#8A6642" stroke-width="3"/>
  <circle cx="150" cy="150" r="50" fill="none" stroke="#C27D2B" stroke-width="2"/>
  <circle cx="150" cy="150" r="40" fill="none" stroke="#3A2D20" stroke-width="1"/>
  <path d="M130 130 L170 170 M130 170 L170 130" stroke="#8A6642" stroke-width="2"/>
  
  <!-- Plate 2 -->
  <circle cx="250" cy="150" r="60" fill="white" stroke="#8A6642" stroke-width="3"/>
  <circle cx="250" cy="150" r="50" fill="none" stroke="#C27D2B" stroke-width="2"/>
  <path d="M230 150 L270 150 M250 130 L250 170" stroke="#8A6642" stroke-width="2"/>
  
  <!-- Plate 3 -->
  <circle cx="150" cy="250" r="60" fill="white" stroke="#8A6642" stroke-width="3"/>
  <circle cx="150" cy="250" r="50" fill="none" stroke="#C27D2B" stroke-width="2"/>
  <path d="M120 250 Q 150 220 180 250 Q 150 280 120 250" fill="none" stroke="#8A6642" stroke-width="2"/>
  
  <!-- Plate 4 -->
  <circle cx="250" cy="250" r="60" fill="white" stroke="#8A6642" stroke-width="3"/>
  <circle cx="250" cy="250" r="50" fill="none" stroke="#C27D2B" stroke-width="2"/>
  <circle cx="250" cy="250" r="20" fill="none" stroke="#8A6642" stroke-width="2"/>
  
  <text x="50%" y="350" dominant-baseline="middle" text-anchor="middle" font-family="Arial" font-size="24" fill="#3A2D20">Moroccan Ceramic Plates</text>
</svg> 