<svg width="400" height="400" xmlns="http://www.w3.org/2000/svg">
  <rect width="100%" height="100%" fill="#f9f3eb"/>
  <!-- Teapot -->
  <ellipse cx="200" cy="250" rx="60" ry="35" fill="#C27D2B" stroke="#8A6642" stroke-width="4"/>
  <path d="M180 220 L180 250 Q 200 270 220 250 L220 220 Z" fill="#C27D2B" stroke="#8A6642" stroke-width="2"/>
  <path d="M170 250 Q 200 200 230 250" stroke="#8A6642" stroke-width="4" fill="none"/>
  <!-- Tea glasses -->
  <rect x="100" y="280" width="30" height="40" rx="5" ry="5" fill="none" stroke="#8A6642" stroke-width="2"/>
  <rect x="150" y="280" width="30" height="40" rx="5" ry="5" fill="none" stroke="#8A6642" stroke-width="2"/>
  <rect x="220" y="280" width="30" height="40" rx="5" ry="5" fill="none" stroke="#8A6642" stroke-width="2"/>
  <rect x="270" y="280" width="30" height="40" rx="5" ry="5" fill="none" stroke="#8A6642" stroke-width="2"/>
  <!-- Sprig of mint -->
  <path d="M230 200 Q 250 180 270 190 M230 200 Q 250 190 260 170" stroke="#4CAF50" stroke-width="2" fill="none"/>
  <text x="50%" y="50%" dominant-baseline="middle" text-anchor="middle" font-family="Arial" font-size="24" fill="#3A2D20">Moroccan Mint Tea Set</text>
</svg> 