<?xml version="1.0" encoding="UTF-8"?>
<svg width="600" height="800" viewBox="0 0 600 800" xmlns="http://www.w3.org/2000/svg">
  <!-- Background -->
  <rect width="100%" height="100%" fill="#F5F5F5" />
  
  <!-- Subtle pattern background -->
  <pattern id="subtle-pattern" width="20" height="20" patternUnits="userSpaceOnUse" patternTransform="rotate(45)">
    <rect width="20" height="20" fill="#F5F5F5" />
    <circle cx="10" cy="10" r="1" fill="#E0E0E0" />
  </pattern>
  <rect width="100%" height="100%" fill="url(#subtle-pattern)" />
  
  <!-- Silhouette of a person -->
  <g transform="translate(300, 400)">
    <!-- Head -->
    <circle cx="0" cy="-150" r="90" fill="#8D6E63" />
    
    <!-- Face Details (minimalistic) -->
    <ellipse cx="-30" cy="-160" rx="10" ry="5" fill="#5D4037" /> <!-- Left eye -->
    <ellipse cx="30" cy="-160" rx="10" ry="5" fill="#5D4037" /> <!-- Right eye -->
    <path d="M-20,-120 C0,-110 20,-110 40,-120" fill="none" stroke="#5D4037" stroke-width="3" /> <!-- Smile -->
    
    <!-- Hair -->
    <path d="M-80,-200 C-100,-170 -90,-140 -80,-120 C-60,-90 -30,-90 0,-100 C30,-90 60,-90 80,-120 C90,-140 100,-170 80,-200 C50,-220 20,-210 0,-210 C-20,-210 -50,-220 -80,-200" fill="#3E2723" />
    
    <!-- Traditional headscarf -->
    <path d="M-90,-190 L-80,-260 L80,-260 L90,-190 C60,-220 30,-230 0,-230 C-30,-230 -60,-220 -90,-190" fill="#E91E63" />
    <path d="M-90,-190 C-100,-170 -90,-120 -90,-120 L-110,-80 L-20,-80 C-50,-90 -60,-120 -60,-150 C-60,-180 -40,-200 -40,-200 C-60,-210 -80,-200 -90,-190" fill="#E91E63" />
    <path d="M90,-190 C100,-170 90,-120 90,-120 L110,-80 L20,-80 C50,-90 60,-120 60,-150 C60,-180 40,-200 40,-200 C60,-210 80,-200 90,-190" fill="#E91E63" />
    
    <!-- Decorative pattern on headscarf -->
    <pattern id="headscarf-pattern" width="20" height="20" patternUnits="userSpaceOnUse" patternTransform="rotate(45)">
      <rect width="20" height="20" fill="none" />
      <circle cx="10" cy="10" r="3" fill="none" stroke="#FCE4EC" stroke-width="1" />
      <circle cx="10" cy="10" r="1" fill="#FCE4EC" />
    </pattern>
    <path d="M-90,-190 L-80,-260 L80,-260 L90,-190 C60,-220 30,-230 0,-230 C-30,-230 -60,-220 -90,-190" fill="url(#headscarf-pattern)" opacity="0.3" />
    
    <!-- Shoulders and upper body -->
    <path d="M-100,-50 L100,-50 L130,150 L-130,150 Z" fill="#880E4F" />
    
    <!-- Traditional Moroccan pattern on clothing -->
    <pattern id="moroccan-pattern" width="30" height="30" patternUnits="userSpaceOnUse">
      <rect width="30" height="30" fill="none" />
      <path d="M0,0 L15,15 L0,30" fill="none" stroke="#FCE4EC" stroke-width="1" />
      <path d="M30,0 L15,15 L30,30" fill="none" stroke="#FCE4EC" stroke-width="1" />
    </pattern>
    <rect x="-100" y="-50" width="200" height="200" fill="url(#moroccan-pattern)" opacity="0.3" />
    
    <!-- Neck -->
    <rect x="-30" y="-60" width="60" height="30" fill="#A1887F" />
    
    <!-- Jewelry -->
    <circle cx="0" cy="0" r="10" fill="#FFC107" />
    <rect x="-50" y="0" width="100" height="5" fill="#FFC107" />
  </g>
  
  <!-- Decorative border -->
  <rect x="20" y="20" width="560" height="760" fill="none" stroke="#E91E63" stroke-width="2" rx="5" />
</svg> 