<?xml version="1.0" encoding="UTF-8"?>
<svg width="600" height="800" viewBox="0 0 600 800" xmlns="http://www.w3.org/2000/svg">
  <!-- Background -->
  <rect width="100%" height="100%" fill="#F5F5F5" />
  
  <!-- Subtle pattern background -->
  <pattern id="subtle-pattern" width="20" height="20" patternUnits="userSpaceOnUse" patternTransform="rotate(45)">
    <rect width="20" height="20" fill="#F5F5F5" />
    <circle cx="10" cy="10" r="1" fill="#E0E0E0" />
  </pattern>
  <rect width="100%" height="100%" fill="url(#subtle-pattern)" />
  
  <!-- Silhouette of a person -->
  <g transform="translate(300, 400)">
    <!-- Head -->
    <circle cx="0" cy="-150" r="90" fill="#5D4037" />
    
    <!-- Face Details (minimalistic) -->
    <ellipse cx="-30" cy="-160" rx="10" ry="5" fill="#3E2723" /> <!-- Left eye -->
    <ellipse cx="30" cy="-160" rx="10" ry="5" fill="#3E2723" /> <!-- Right eye -->
    <path d="M-20,-120 C0,-110 20,-110 40,-120" fill="none" stroke="#3E2723" stroke-width="3" /> <!-- Smile -->
    
    <!-- Beard -->
    <path d="M-60,-120 C-40,-80 40,-80 60,-120" fill="#3E2723" />
    
    <!-- Traditional hat (Fez) -->
    <path d="M-80,-240 L80,-240 L60,-170 L-60,-170 Z" fill="#B71C1C" />
    <circle cx="0" cy="-240" r="7" fill="#FFC107" /> <!-- Top decoration -->
    
    <!-- Shoulders and upper body -->
    <path d="M-100,-50 L100,-50 L130,150 L-130,150 Z" fill="#795548" />
    
    <!-- Traditional Moroccan pattern on clothing -->
    <pattern id="moroccan-pattern" width="40" height="40" patternUnits="userSpaceOnUse">
      <rect width="40" height="40" fill="none" />
      <path d="M0,0 L20,0 L40,20 L20,40 L0,20 Z" fill="none" stroke="#D4A76A" stroke-width="1" />
      <path d="M20,0 L40,0 L40,20 L20,40 L0,20 L0,0 Z" fill="none" stroke="#D4A76A" stroke-width="1" />
    </pattern>
    <rect x="-100" y="-50" width="200" height="200" fill="url(#moroccan-pattern)" opacity="0.3" />
    
    <!-- Neck -->
    <rect x="-30" y="-60" width="60" height="30" fill="#8D6E63" />
  </g>
  
  <!-- Decorative border -->
  <rect x="20" y="20" width="560" height="760" fill="none" stroke="#D4A76A" stroke-width="2" rx="5" />
</svg> 