<svg width="1200" height="400" xmlns="http://www.w3.org/2000/svg">
  <!-- Background -->
  <rect width="100%" height="100%" fill="#3A2D20"/>
  
  <!-- Decorative pattern -->
  <defs>
    <pattern id="moroccanPattern" x="0" y="0" width="40" height="40" patternUnits="userSpaceOnUse">
      <rect width="40" height="40" fill="#3A2D20"/>
      <path d="M0,20 Q20,0 40,20 Q20,40 0,20" stroke="#C27D2B" stroke-width="1" fill="none"/>
    </pattern>
  </defs>
  
  <rect width="100%" height="100%" fill="url(#moroccanPattern)" fill-opacity="0.3"/>
  
  <!-- Overlapping circles -->
  <circle cx="150" cy="200" r="100" fill="#C27D2B" fill-opacity="0.2"/>
  <circle cx="350" cy="200" r="80" fill="#E6B17E" fill-opacity="0.2"/>
  <circle cx="850" cy="200" r="120" fill="#C27D2B" fill-opacity="0.2"/>
  <circle cx="1050" cy="200" r="70" fill="#E6B17E" fill-opacity="0.2"/>
  
  <!-- Decorative line -->
  <line x1="0" y1="350" x2="1200" y2="350" stroke="#C27D2B" stroke-width="2"/>
  
  <!-- Moroccan geometric elements -->
  <path d="M500,50 L550,150 L600,50 L650,150 L700,50" stroke="#C27D2B" stroke-width="3" fill="none"/>
  <path d="M500,350 L550,250 L600,350 L650,250 L700,350" stroke="#C27D2B" stroke-width="3" fill="none"/>
  
  <!-- Star pattern -->
  <path d="M600,200 L615,215 L635,210 L625,230 L640,245 L620,245 L610,265 L600,245 L580,245 L595,230 L585,210 L605,215 Z" fill="#C27D2B" fill-opacity="0.6"/>
</svg> 