<?xml version="1.0" encoding="UTF-8"?>
<svg width="1920" height="1080" viewBox="0 0 1920 1080" xmlns="http://www.w3.org/2000/svg">
  <!-- Background gradient representing Moroccan landscape -->
  <defs>
    <linearGradient id="bg-gradient" x1="0%" y1="0%" x2="100%" y2="100%">
      <stop offset="0%" style="stop-color:#C19A6B;stop-opacity:1" />
      <stop offset="100%" style="stop-color:#8B4513;stop-opacity:1" />
    </linearGradient>
    <pattern id="pattern-overlay" width="20" height="20" patternUnits="userSpaceOnUse">
      <path d="M0,10 L20,10 M10,0 L10,20" stroke="#DEB887" stroke-width="0.5" opacity="0.3"/>
    </pattern>
  </defs>
  
  <!-- Background -->
  <rect width="100%" height="100%" fill="url(#bg-gradient)" />
  <rect width="100%" height="100%" fill="url(#pattern-overlay)" />
  
  <!-- Stylized mountain silhouettes -->
  <path d="M0,700 L300,500 L600,650 L900,450 L1200,600 L1500,500 L1800,600 L1920,550 L1920,1080 L0,1080 Z" fill="#5D4037" opacity="0.8" />
  <path d="M0,800 L200,700 L400,750 L600,680 L800,750 L1000,680 L1200,750 L1400,650 L1600,750 L1800,700 L1920,750 L1920,1080 L0,1080 Z" fill="#3E2723" opacity="0.9" />
  
  <!-- Stylized Moroccan archway -->
  <path d="M960,300 Q750,300 750,500 Q750,700 960,700 Q1170,700 1170,500 Q1170,300 960,300 Z" fill="none" stroke="#F9A825" stroke-width="10" />
  <path d="M830,500 Q830,600 960,600 Q1090,600 1090,500 L1090,350 L830,350 Z" fill="none" stroke="#F9A825" stroke-width="5" />
  
  <!-- Decorative Moroccan patterns -->
  <circle cx="960" cy="250" r="40" fill="none" stroke="#F9A825" stroke-width="3" />
  <circle cx="960" cy="250" r="30" fill="none" stroke="#F9A825" stroke-width="2" />
  <circle cx="960" cy="250" r="20" fill="none" stroke="#F9A825" stroke-width="1" />
  
  <!-- Additional decorative elements -->
  <path d="M880,430 L820,430 L800,400 L820,370 L880,370 L900,400 Z" fill="none" stroke="#F9A825" stroke-width="2" />
  <path d="M1040,430 L1100,430 L1120,400 L1100,370 L1040,370 L1020,400 Z" fill="none" stroke="#F9A825" stroke-width="2" />
</svg> 