<svg width="1200" height="600" xmlns="http://www.w3.org/2000/svg">
  <!-- Background with gradient -->
  <rect width="100%" height="100%" fill="#f9f3eb"/>
  <rect width="100%" height="100%" fill="url(#grad)"/>
  
  <defs>
    <linearGradient id="grad" x1="0%" y1="0%" x2="100%" y2="100%">
      <stop offset="0%" style="stop-color:#3A2D20;stop-opacity:0.8" />
      <stop offset="100%" style="stop-color:#8A6642;stop-opacity:0.6" />
    </linearGradient>
    <pattern id="pattern" x="0" y="0" width="20" height="20" patternUnits="userSpaceOnUse">
      <circle cx="10" cy="10" r="1" fill="#C27D2B" fill-opacity="0.3"/>
    </pattern>
  </defs>
  
  <!-- Pattern overlay -->
  <rect width="100%" height="100%" fill="url(#pattern)"/>
  
  <!-- Decorative elements -->
  <path d="M0,400 C200,450 400,350 600,400 C800,450 1000,350 1200,400 L1200,600 L0,600 Z" fill="#C27D2B" fill-opacity="0.3"/>
  
  <!-- Moroccan arch patterns -->
  <path d="M100,150 Q150,50 200,150" stroke="#E6B17E" stroke-width="3" fill="none"/>
  <path d="M300,150 Q350,50 400,150" stroke="#E6B17E" stroke-width="3" fill="none"/>
  <path d="M500,150 Q550,50 600,150" stroke="#E6B17E" stroke-width="3" fill="none"/>
  <path d="M700,150 Q750,50 800,150" stroke="#E6B17E" stroke-width="3" fill="none"/>
  <path d="M900,150 Q950,50 1000,150" stroke="#E6B17E" stroke-width="3" fill="none"/>
  
  <!-- Circular ornaments -->
  <circle cx="150" cy="250" r="30" fill="none" stroke="#C27D2B" stroke-width="2"/>
  <circle cx="150" cy="250" r="20" fill="none" stroke="#C27D2B" stroke-width="2"/>
  <circle cx="850" cy="250" r="30" fill="none" stroke="#C27D2B" stroke-width="2"/>
  <circle cx="850" cy="250" r="20" fill="none" stroke="#C27D2B" stroke-width="2"/>
  
  <!-- Product silhouettes -->
  <!-- Tagine -->
  <ellipse cx="950" cy="450" rx="60" ry="30" fill="#8A6642" fill-opacity="0.7"/>
  <path d="M890,450 Q950,350 1010,450" stroke="#8A6642" stroke-width="4" fill="#C27D2B" fill-opacity="0.7"/>
  
  <!-- Lantern -->
  <path d="M250,380 L310,380 L300,300 L260,300 Z" fill="#C27D2B" fill-opacity="0.7" stroke="#8A6642" stroke-width="2"/>
  
  <!-- Text space in the center for page content -->
  <rect x="350" y="200" width="500" height="200" fill="none"/>
</svg> 