<?xml version="1.0" encoding="UTF-8"?>
<svg width="800" height="600" viewBox="0 0 800 600" xmlns="http://www.w3.org/2000/svg">
  <!-- Background -->
  <rect width="100%" height="100%" fill="#F5F0E6" />
  
  <!-- Decorative pattern background -->
  <pattern id="moroccanPattern" patternUnits="userSpaceOnUse" width="40" height="40" patternTransform="rotate(45)">
    <rect width="40" height="40" fill="#F5F0E6"/>
    <circle cx="20" cy="20" r="15" fill="none" stroke="#D4A76A" stroke-width="1"/>
    <circle cx="20" cy="20" r="10" fill="none" stroke="#D4A76A" stroke-width="1"/>
    <circle cx="20" cy="20" r="5" fill="none" stroke="#D4A76A" stroke-width="1"/>
  </pattern>
  <rect width="100%" height="100%" fill="url(#moroccanPattern)" opacity="0.3"/>
  
  <!-- Artisan silhouette in the center -->
  <g transform="translate(400, 300)">
    <!-- Artisan figure -->
    <circle cx="0" cy="-100" r="50" fill="#8B5E3C"/> <!-- Head -->
    <rect x="-40" y="-50" width="80" height="150" rx="20" fill="#8B5E3C"/> <!-- Body -->
    <rect x="-65" y="-20" width="25" height="80" rx="10" fill="#8B5E3C"/> <!-- Left arm -->
    <rect x="40" y="-20" width="25" height="80" rx="10" fill="#8B5E3C"/> <!-- Right arm -->
    
    <!-- Pottery wheel -->
    <ellipse cx="0" cy="150" rx="120" ry="30" fill="#A67C52"/>
    <ellipse cx="0" cy="150" rx="100" ry="25" fill="#8B5E3C"/>
    <ellipse cx="0" cy="150" rx="80" ry="20" fill="#A67C52"/>
    
    <!-- Clay pot being made -->
    <path d="M0,70 Q-30,90 -40,110 Q-40,130 0,140 Q40,130 40,110 Q30,90 0,70" fill="#D2B48C"/>
  </g>
  
  <!-- Decorative Moroccan-style border -->
  <rect x="20" y="20" width="760" height="560" fill="none" stroke="#D4A76A" stroke-width="5" rx="10"/>
  <rect x="30" y="30" width="740" height="540" fill="none" stroke="#D4A76A" stroke-width="2" rx="5"/>
  
  <!-- Corner decorations -->
  <circle cx="20" cy="20" r="10" fill="#D4A76A"/>
  <circle cx="780" cy="20" r="10" fill="#D4A76A"/>
  <circle cx="20" cy="580" r="10" fill="#D4A76A"/>
  <circle cx="780" cy="580" r="10" fill="#D4A76A"/>
</svg> 